<?xml version="1.0" standalone="no"?>
<!DOCTYPE svg PUBLIC "-//W3C//DTD SVG 20010904//EN"
 "http://www.w3.org/TR/2001/REC-SVG-20010904/DTD/svg10.dtd">
<svg version="1.0" xmlns="http://www.w3.org/2000/svg"
 width="512.000000pt" height="512.000000pt" viewBox="0 0 512.000000 512.000000"
 preserveAspectRatio="xMidYMid meet">
<metadata>
Created by potrace 1.14, written by Peter Selinger 2001-2017
</metadata>
<g transform="translate(0.000000,512.000000) scale(0.100000,-0.100000)"
fill="#000000" stroke="none">
<path d="M1949 4483 c-1 -10 -3 -43 -5 -73 -4 -71 -12 -322 -13 -427 l-1 -81
-49 -53 c-56 -60 -118 -176 -156 -294 -29 -86 -30 -103 -20 -180 5 -34 2 -71
-9 -113 -9 -34 -19 -81 -22 -104 -5 -29 -14 -48 -33 -62 -42 -33 -81 -77 -81
-93 0 -11 -7 -13 -27 -9 -16 3 -44 8 -63 11 -19 3 -50 9 -69 13 l-33 7 -3 300
c-2 296 -8 360 -43 480 -20 66 -55 117 -141 203 -115 115 -148 140 -197 148
-21 3 -52 13 -68 21 -34 18 -192 19 -212 2 -7 -5 -25 -8 -41 -6 -20 3 -42 -6
-80 -32 -62 -42 -77 -76 -77 -169 1 -57 -1 -63 -22 -68 -22 -6 -45 -48 -40
-76 9 -55 91 -131 152 -142 16 -3 40 -8 54 -11 72 -15 90 -17 153 -16 74 1 69
6 72 -79 1 -25 5 -65 9 -90 4 -25 9 -58 10 -75 2 -16 7 -52 11 -80 13 -103 15
-117 20 -158 13 -106 53 -320 61 -326 5 -3 16 -19 25 -36 21 -39 88 -75 317
-172 126 -54 182 -82 182 -93 0 -9 5 -21 11 -27 7 -7 12 -47 11 -101 0 -116 8
-152 54 -221 46 -69 103 -124 171 -162 55 -32 60 -43 79 -174 4 -27 9 -57 11
-65 2 -8 5 -49 7 -91 6 -118 -2 -127 -230 -263 l-189 -113 -92 -129 c-50 -71
-91 -136 -92 -144 0 -8 -3 -33 -6 -55 -10 -72 -12 -150 -3 -165 23 -41 107
-283 112 -325 4 -27 9 -52 12 -56 2 -4 -13 -25 -33 -47 -64 -68 -129 -146
-140 -167 -14 -26 -10 -112 6 -128 7 -7 45 -12 94 -13 45 0 93 -4 106 -8 13
-5 50 -7 83 -6 72 2 96 1 180 -6 95 -8 163 13 227 72 52 47 151 196 151 226 0
9 4 19 9 22 10 6 3 83 -9 106 -5 9 -16 55 -25 103 -9 48 -27 118 -41 157 -13
38 -24 75 -24 82 1 21 41 61 100 98 30 19 57 37 60 40 3 3 25 19 50 36 53 37
151 70 236 78 32 4 79 9 104 13 111 15 145 9 258 -43 40 -19 77 -34 80 -34 4
0 13 -4 21 -9 10 -7 3 -23 -32 -75 -82 -120 -102 -171 -100 -253 3 -85 10
-102 72 -163 143 -140 286 -240 367 -258 122 -27 155 -24 202 21 14 13 38 22
63 23 28 2 49 10 68 27 14 14 38 29 53 32 44 11 78 52 78 94 0 49 -19 73 -98
126 -37 25 -78 54 -91 65 -28 24 -36 14 97 118 71 56 82 69 100 120 18 53 30
94 38 132 8 37 -39 165 -84 229 -136 196 -111 174 -329 288 -198 102 -198 102
-197 135 1 18 4 47 7 63 11 55 16 89 22 149 4 32 10 68 15 80 4 11 8 24 9 29
0 4 1 8 2 10 0 1 2 11 4 21 2 10 9 22 16 27 14 8 19 30 23 99 2 25 4 50 5 56
0 7 26 24 57 39 32 16 53 32 51 39 -5 13 26 38 53 43 8 1 51 5 95 8 44 3 105
9 135 15 30 5 76 12 102 15 45 6 47 5 46 -17 -3 -36 13 -89 38 -130 28 -44 97
-97 137 -105 15 -3 29 -9 32 -13 2 -3 34 -3 71 2 94 11 169 62 211 142 21 40
28 132 14 183 -16 58 -68 123 -119 148 -23 11 -42 22 -42 25 0 3 16 30 36 60
21 30 70 129 109 220 149 340 146 334 196 350 24 8 55 14 69 13 14 -1 54 8 89
20 52 18 68 29 90 62 14 22 29 42 32 45 14 10 3 169 -13 187 -21 26 -68 110
-68 123 0 12 -43 74 -72 103 -10 10 -38 21 -63 26 -38 7 -56 20 -114 80 -52
53 -77 71 -98 72 -15 1 -48 2 -72 3 -34 1 -51 8 -74 29 -70 65 -124 74 -207
32 -58 -29 -96 -81 -105 -140 -9 -68 -13 -81 -35 -132 -13 -30 -36 -61 -60
-80 -22 -17 -74 -63 -116 -102 -58 -56 -79 -84 -90 -119 -27 -83 -26 -103 3
-156 24 -41 37 -52 87 -73 35 -15 72 -23 89 -20 31 4 31 6 12 -73 -5 -22 -46
-202 -50 -220 -2 -8 -4 -28 -4 -45 -1 -16 -5 -36 -9 -43 -11 -16 -182 -28
-182 -13 0 10 14 15 33 12 14 -2 7 8 -45 62 -77 79 -147 111 -266 121 -18 2
-48 12 -67 22 l-36 19 7 65 c10 93 13 333 4 345 -4 6 -15 36 -24 68 l-18 57
32 88 c17 48 33 94 35 103 2 8 10 31 17 50 8 18 15 36 15 39 0 3 23 77 51 165
50 159 72 233 72 248 0 12 -32 8 -49 -6 -9 -8 -103 -67 -209 -133 -106 -65
-221 -136 -255 -158 l-62 -39 -80 26 c-98 32 -120 36 -207 38 -72 2 -74 3
-116 65 -79 119 -266 382 -282 396 -24 22 -30 23 -31 1z m2085 -2058 c41 -62
1 -135 -73 -135 -34 0 -44 5 -65 33 -24 32 -26 49 -11 96 4 15 15 18 51 16 25
-1 47 2 50 7 10 15 32 8 48 -17z"/>
</g>
</svg>
